<svg xmlns="http://www.w3.org/2000/svg" style="isolation:isolate" viewBox="0 0 1011 167.2">
  <path d="M232.535 148.678q-3.515 0-4.902-1.387-1.388-1.388-1.388-4.903V23.618q0-3.515 1.388-4.902 1.387-1.388 4.902-1.388h73.63q3.515 0 4.903 1.388 1.387 1.387 1.387 4.902v9.065q0 3.515-1.387 4.903-1.388 1.387-4.903 1.387H249.37v34.04h47.73q3.515 0 4.903 1.388 1.387 1.387 1.387 4.902v9.065q0 3.515-1.387 4.903-1.388 1.387-4.903 1.387h-47.73v47.73q0 3.515-1.387 4.903-1.388 1.387-4.903 1.387h-10.545Zm131.165 2.775q-21.645 0-32.098-10.73-10.452-10.73-10.452-28.86v-21.83q0-19.425 11.008-29.692 11.007-10.268 31.912-10.268 21.09 0 32.005 10.73 10.915 10.73 10.915 27.565v11.285q0 7.955-8.325 7.955H342.61v6.845q0 9.065 5.458 13.783 5.457 4.717 15.817 4.717 15.355 0 21.83-9.805 2.59-3.7 4.995-3.7 1.665 0 4.255 1.48l6.475 3.515q3.7 1.85 3.7 4.81 0 2.22-1.48 4.44-10.915 17.76-39.96 17.76Zm-21.09-60.31h42.92v-4.07q0-9.065-5.457-13.967-5.458-4.903-16.003-4.903-10.36 0-15.91 4.903-5.55 4.902-5.55 13.967v4.07Zm123.21 60.31q-21.645 0-32.098-10.73-10.452-10.73-10.452-28.86v-21.83q0-19.425 11.008-29.692 11.007-10.268 31.912-10.268 21.09 0 32.005 10.73 10.915 10.73 10.915 27.565v11.285q0 7.955-8.325 7.955H444.73v6.845q0 9.065 5.458 13.783 5.457 4.717 15.817 4.717 15.355 0 21.83-9.805 2.59-3.7 4.995-3.7 1.665 0 4.255 1.48l6.475 3.515q3.7 1.85 3.7 4.81 0 2.22-1.48 4.44-10.915 17.76-39.96 17.76Zm-21.09-60.31h42.92v-4.07q0-9.065-5.457-13.967-5.458-4.903-16.003-4.903-10.36 0-15.91 4.903-5.55 4.902-5.55 13.967v4.07Zm121.175 60.31q-20.165 0-30.155-9.62-9.99-9.62-9.99-27.75V88.738q0-18.87 9.805-28.767 9.805-9.898 28.86-9.898 9.065 0 22.015 2.405V17.513q0-3.145 1.295-4.44 1.295-1.295 4.44-1.295h9.99q3.145 0 4.44 1.295 1.295 1.295 1.295 4.44v117.845q0 4.625-1.387 6.475-1.388 1.85-5.828 3.7-15.725 5.92-34.78 5.92Zm-18.685-38.11q0 9.065 5.365 13.783 5.365 4.717 15.355 4.717 9.805 0 17.02-2.035.925-.37 1.203-.74.277-.37.277-1.295V72.088q-5.18-1.11-9.157-1.757-3.978-.648-8.603-.648-10.915 0-16.187 4.903-5.273 4.902-5.273 14.707v24.05Zm128.02 35.335q-3.33 0-4.995-1.017-1.665-1.018-2.775-3.978l-44.4-120.25q-.555-1.665-.555-2.96 0-3.145 4.81-3.145h9.25q5.92 0 8.14 1.11 2.22 1.11 3.33 4.44l27.195 78.81q2.22 6.845 3.423 12.95 1.202 6.105 1.387 6.66h1.11q.185-.37 1.295-6.382 1.11-6.013 3.515-13.043l26.64-78.995q1.11-3.33 3.423-4.44 2.312-1.11 8.047-1.11h9.065q4.625 0 4.625 3.145 0 1.295-.555 2.96l-44.4 120.065q-1.11 3.145-2.775 4.163-1.665 1.017-4.995 1.017h-9.805Zm106.005 2.775q-20.35 0-31.358-9.805-11.007-9.805-11.007-27.195v-27.38q0-17.39 11.007-27.195 11.008-9.805 31.358-9.805 20.72 0 31.728 9.805 11.007 9.805 11.007 27.195v27.38q0 17.39-11.007 27.195-11.008 9.805-31.728 9.805Zm-20.905-37q0 8.325 5.457 12.95 5.458 4.625 15.448 4.625 10.36 0 15.818-4.625 5.457-4.625 5.457-12.95v-27.38q0-8.51-5.457-13.042-5.458-4.533-15.818-4.533-10.175 0-15.54 4.533-5.365 4.532-5.365 13.042v27.38Zm135.79 34.225q-16.095 0-25.253-3.607-9.157-3.608-13.227-12.395-4.07-8.788-4.07-24.883v-35.15H841q-3.145 0-4.44-1.295-1.295-1.295-1.295-4.44v-8.51q0-3.145 1.295-4.347 1.295-1.203 4.44-1.203h12.58v-16.65q0-3.145 1.295-4.347 1.295-1.203 4.44-1.203h10.175q3.145 0 4.348 1.203 1.202 1.202 1.202 4.347v16.65h21.275q3.145 0 4.347 1.203 1.203 1.202 1.203 4.347v8.51q0 3.145-1.203 4.44-1.202 1.295-4.347 1.295H875.04v34.41q0 9.065 2.035 13.598 2.035 4.532 6.383 6.105 4.347 1.572 12.672 1.572 3.145 0 4.44 1.295 1.295 1.295 1.295 4.44v8.695q0 3.145-1.295 4.533-1.295 1.387-4.44 1.387Zm61.975 2.775q-21.645 0-32.098-10.73-10.452-10.73-10.452-28.86v-21.83q0-19.425 11.007-29.692 11.008-10.268 31.913-10.268 21.09 0 32.005 10.73 10.915 10.73 10.915 27.565v11.285q0 7.955-8.325 7.955h-56.055v6.845q0 9.065 5.457 13.783 5.458 4.717 15.818 4.717 15.355 0 21.83-9.805 2.59-3.7 4.995-3.7 1.665 0 4.255 1.48l6.475 3.515q3.7 1.85 3.7 4.81 0 2.22-1.48 4.44-10.915 17.76-39.96 17.76Zm-21.09-60.31h42.92v-4.07q0-9.065-5.458-13.967-5.457-4.903-16.002-4.903-10.36 0-15.91 4.903-5.55 4.902-5.55 13.967v4.07Z"/>
  <g fill="#00BCD4">
    <path d="M110.026 163.509c-38.959 9.414-80.789.107-107.266-19.833-3.085-2.323-3.673-6.691-1.312-9.747 6.798-8.803 17.39-22.517 23.887-30.929 2.36-3.056 6.884-3.797 10.096-1.653 21.202 14.151 48.76 16.693 75.126-2.611 26.896-19.692 32.852-47.23 25.468-72.596-1.08-3.708.965-7.856 4.563-9.259 9.855-3.841 25.951-10.116 35.506-13.841 3.598-1.402 7.771.334 9.312 3.874 22.301 51.214 1.021 134.315-75.38 156.595Z"/>
    <circle cx="69.761061" cy="42.631754" r="42.631754" vector-effect="non-scaling-stroke"/>
  </g>
</svg>
